<svg xmlns="http://www.w3.org/2000/svg" viewBox="0 0 512 512" width="512" height="512"><rect width="512" height="512" rx="82" fill="#4C5039"/><g transform="translate(126.52,19.80) scale(4.4145)" fill="#FFFFFF"><path d="M58.66,83.66h-13.47s.1-.09.15-.14c.89-.83,1.48-1.74,1.76-2.75.29-1.06.22-2.43-.22-4.1l-2.62-10.31-9.13-35.95-7.38,29.37-1.08,4.32-1.7,6.76h.02l-1.55,5.72c-.39,1.44-.4,2.77-.04,4.01.37,1.24.97,2.25,1.8,3.06h-12.16c1.07-.81,1.94-1.68,2.6-2.63.66-.95,1.26-2.25,1.79-3.91l3.74-13.95,1.06-3.99,7.76-28.92c.25-.98.27-2.15.07-3.5-.2-1.34-.8-2.47-1.83-3.4h11.35l14.54,53.49c.45,1.49,1.01,2.71,1.72,3.67.71.95,1.65,1.99,2.82,3.14Z"/><polygon points="1.26 53.51 35.78 53.51 37.01 58.42 0 58.42 1.26 53.51"/></g></svg>