<?xml version="1.0" encoding="UTF-8"?>
<svg id="Layer_2" data-name="Layer 2" xmlns="http://www.w3.org/2000/svg" viewBox="0 0 178.46 178.46">
  <defs>
    <style>
      .cls-1 {
        fill: #4c5039;
      }

      .cls-2 {
        fill: #fff;
      }
    </style>
  </defs>
  <g id="Layer_1-2" data-name="Layer 1">
    <g>
      <rect class="cls-1" width="178.46" height="178.46"/>
      <path class="cls-2" d="M105.28,139.99c-.08.08-.17.15-.25.23h22.78c-1.99-1.94-3.57-3.71-4.77-5.31-1.2-1.62-2.15-3.68-2.91-6.2l-24.58-90.46h-19.19c1.74,1.57,2.76,3.48,3.09,5.74.34,2.29.29,4.26-.12,5.93l-10.55,39.32H30.73l-2.12,8.31h37.94l-.34,1.27-1.8,6.74-6.33,23.6c-.91,2.82-1.92,5.02-3.03,6.62-1.12,1.6-2.59,3.08-4.4,4.45h20.56c-1.4-1.37-2.42-3.08-3.05-5.17-.62-2.09-.6-4.34.06-6.77l2.62-9.67h-.03l2.88-11.44,1.83-7.31.58-2.31h15.08l-2.07-8.31h-10.93l9.81-39.04,15.44,60.79,4.43,17.44c.74,2.82.86,5.14.37,6.93-.46,1.71-1.46,3.25-2.97,4.65Z"/>
    </g>
  </g>
</svg>