<svg xmlns="http://www.w3.org/2000/svg" viewBox="0 0 1320 980" width="1320" height="980" font-family="Helvetica, Arial, sans-serif"><defs>
  <marker id="ar" viewBox="0 0 10 10" refX="9" refY="5" markerWidth="7" markerHeight="7" orient="auto-start-reverse">
    <path d="M0,1 L9,5 L0,9 z" fill="#4C5039"/></marker>
  <pattern id="hatch" width="7" height="7" patternUnits="userSpaceOnUse" patternTransform="rotate(45)">
    <line x1="0" y1="0" x2="0" y2="7" stroke="#222216" stroke-width="0.7" stroke-opacity="0.55"/></pattern>
  <pattern id="hatchS" width="6" height="6" patternUnits="userSpaceOnUse" patternTransform="rotate(45)">
    <line x1="0" y1="0" x2="0" y2="6" stroke="#222216" stroke-width="0.7" stroke-opacity="0.4"/></pattern>
</defs><rect width="1320" height="980" fill="#EFECE4"/><rect x="22.00" y="22.00" width="1276.00" height="936.00" rx="0" fill="none" fill-opacity="1" stroke="#2C2620" stroke-width="1.4"/><rect x="28.00" y="28.00" width="1264.00" height="924.00" rx="0" fill="none" fill-opacity="1" stroke="#8C8478" stroke-width="0.6"/><text x="54.00" y="66.00" font-family="Helvetica, Arial, sans-serif" font-size="25" font-weight="700" fill="#222216" text-anchor="start" letter-spacing="0.8" >SEASIDE PROMENADE MONOLITH</text><text x="54.00" y="90.00" font-family="Helvetica, Arial, sans-serif" font-size="12.5" font-weight="400" fill="#8C8478" text-anchor="start" letter-spacing="0.3" >Coastal sandstone standing stone · deep-cut wordmark · bare (no infill) · no QR</text><line x1="54.00" y1="104.00" x2="1266.00" y2="104.00" stroke="#2C2620" stroke-width="0.8" stroke-opacity="1"/><text x="162.00" y="238.00" font-family="Helvetica, Arial, sans-serif" font-size="12" font-weight="700" fill="#4C5039" text-anchor="start" letter-spacing="1" >1 — FRONT ELEVATION   (indicative 1:10)</text><path d="M168.0,268.0 L288.96000000000004,254.0 L434.0,274.0 L438.0,760 L162.0,760 Z" fill="#C7B08C" stroke="#2C2620" stroke-width="1.5"/><rect x="192.36" y="355.20" width="215.28" height="212.52" rx="0" fill="#CFB892" fill-opacity="1" stroke="#2C2620" stroke-width="1"/><g transform="translate(207.4296,418.95599999999996) scale(0.50477)">
    <g>
      <path fill="#222216" d="M274.56,21.93c-17.41,0-31.58,14.16-31.58,31.58s14.17,31.58,31.58,31.58,31.58-14.17,31.58-31.58-14.17-31.58-31.58-31.58ZM274.56,79.04c-13.6,0-24.66-11.53-24.66-25.52s11.07-25.54,24.66-25.54,24.67,11.53,24.67,25.54-11.06,25.52-24.67,25.52Z"/>
      <path fill="#222216" d="M280.98,6.46c0,3.54-2.84,6.46-6.33,6.46s-6.33-2.92-6.33-6.46,2.84-6.46,6.33-6.46,6.33,2.92,6.33,6.46Z"/>
      <path fill="#222216" d="M99.24,78.57h-10.85v-20.06h7.77c1.27,0,2.31.23,3.11.69.81.46,1.7,1.09,2.67,1.9v-9.99c-.98,1.09-1.87,1.78-2.67,2.07-.81.29-1.84.43-3.11.43h-7.77v-25.16h13.7c1.03,0,1.87.27,2.53.82.66.55,1.38,1.31,2.16,2.28v-8.18h-27.91c.83.98,1.48,1.91,1.94,2.8.46.89.7,2,.7,3.32v48.07c0,1.38-.22,2.5-.66,3.36-.44.86-1.07,1.78-1.9,2.76h27.83l1.17-8.18c-1.42.98-2.76,1.74-4.03,2.28-1.27.55-2.83.82-4.69.82Z"/>
      <path fill="#222216" d="M126.5,31.63c.78-.98,1.5-1.74,2.16-2.28.66-.55,1.5-.82,2.53-.82h10.07v49.1c0,1.32-.22,2.41-.66,3.27-.44.86-1.07,1.78-1.9,2.76h11.94c-.83-1.03-1.46-1.95-1.9-2.76-.44-.8-.66-1.9-.66-3.27V28.52h10.07c1.02,0,1.87.27,2.53.82.66.55,1.38,1.31,2.16,2.28v-8.27h-36.33v8.27Z"/>
      <path fill="#222216" d="M356.02,23.35c.42.48.79.96,1.11,1.43.32.47.6.93.84,1.37.46.89.69,1.99.69,3.32v36.44c-1.03-1.72-24.39-42.55-24.39-42.55h-8.57c.87.97,1.55,1.91,2.01,2.79.46.89.7,2,.7,3.32v48.07c0,1.32-.23,2.42-.66,3.31-.22.45-.49.9-.82,1.37-.16.24-.35.47-.54.71-.19.24-.4.48-.62.73h10.76c-.41-.49-.78-.96-1.1-1.44-.33-.46-.6-.92-.84-1.37-.46-.89-.69-1.99-.69-3.31v-41.01c1.27,2.18,27.84,47.12,27.84,47.12h2.41V29.47c0-.53.04-1.02.11-1.47.05-.41.15-.78.26-1.14.08-.25.18-.49.29-.71.44-.89,1.09-1.82,1.98-2.79h-10.77Z"/>
      <path fill="#222216" d="M220.79,26.16c.46-.89,1.11-1.83,1.94-2.8h-12.08c.83.97,1.47,1.91,1.94,2.8.46.89.7,1.99.7,3.31v24.04h-20.3v-24.04c0-1.32.23-2.42.7-3.31.46-.89,1.1-1.83,1.94-2.8h-12.16c.83.97,1.47,1.91,1.94,2.8.46.89.7,1.99.7,3.31v48.07c0,1.32-.22,2.43-.66,3.31-.44.89-1.06,1.83-1.9,2.8h12.02c-.84-.97-1.47-1.91-1.91-2.8-.44-.88-.66-1.99-.66-3.31v-19.12h20.3v19.12c0,1.32-.23,2.43-.66,3.31-.44.89-1.07,1.83-1.9,2.8h11.93c-.83-.97-1.47-1.91-1.9-2.8-.44-.88-.66-1.99-.66-3.31V29.47c0-1.32.23-2.42.69-3.31Z"/>
      <g>
        <path fill="#222216" d="M58.66,83.66h-13.47s.1-.09.15-.14c.89-.83,1.48-1.74,1.76-2.75.29-1.06.22-2.43-.22-4.1l-2.62-10.31-9.13-35.95-7.38,29.37-1.08,4.32-1.7,6.76h.02l-1.55,5.72c-.39,1.44-.4,2.77-.04,4.01.37,1.24.97,2.25,1.8,3.06h-12.16c1.07-.81,1.94-1.68,2.6-2.63.66-.95,1.26-2.25,1.79-3.91l3.74-13.95,1.06-3.99,7.76-28.92c.25-.98.27-2.15.07-3.5-.2-1.34-.8-2.47-1.83-3.4h11.35l14.54,53.49c.45,1.49,1.01,2.71,1.72,3.67.71.95,1.65,1.99,2.82,3.14Z"/>
        <polygon fill="#222216" points="1.26 53.51 35.78 53.51 37.01 58.42 0 58.42 1.26 53.51"/>
      </g>
    </g>
  </g><line x1="72.00" y1="760.00" x2="576.00" y2="760.00" stroke="#222216" stroke-width="1.8" stroke-opacity="1"/><line x1="72.00" y1="760.00" x2="63.00" y2="769.00" stroke="#222216" stroke-width="0.7" stroke-opacity="0.5"/><line x1="84.00" y1="760.00" x2="75.00" y2="769.00" stroke="#222216" stroke-width="0.7" stroke-opacity="0.5"/><line x1="96.00" y1="760.00" x2="87.00" y2="769.00" stroke="#222216" stroke-width="0.7" stroke-opacity="0.5"/><line x1="108.00" y1="760.00" x2="99.00" y2="769.00" stroke="#222216" stroke-width="0.7" stroke-opacity="0.5"/><line x1="120.00" y1="760.00" x2="111.00" y2="769.00" stroke="#222216" stroke-width="0.7" stroke-opacity="0.5"/><line x1="132.00" y1="760.00" x2="123.00" y2="769.00" stroke="#222216" stroke-width="0.7" stroke-opacity="0.5"/><line x1="144.00" y1="760.00" x2="135.00" y2="769.00" stroke="#222216" stroke-width="0.7" stroke-opacity="0.5"/><line x1="156.00" y1="760.00" x2="147.00" y2="769.00" stroke="#222216" stroke-width="0.7" stroke-opacity="0.5"/><line x1="168.00" y1="760.00" x2="159.00" y2="769.00" stroke="#222216" stroke-width="0.7" stroke-opacity="0.5"/><line x1="180.00" y1="760.00" x2="171.00" y2="769.00" stroke="#222216" stroke-width="0.7" stroke-opacity="0.5"/><line x1="192.00" y1="760.00" x2="183.00" y2="769.00" stroke="#222216" stroke-width="0.7" stroke-opacity="0.5"/><line x1="204.00" y1="760.00" x2="195.00" y2="769.00" stroke="#222216" stroke-width="0.7" stroke-opacity="0.5"/><line x1="216.00" y1="760.00" x2="207.00" y2="769.00" stroke="#222216" stroke-width="0.7" stroke-opacity="0.5"/><line x1="228.00" y1="760.00" x2="219.00" y2="769.00" stroke="#222216" stroke-width="0.7" stroke-opacity="0.5"/><line x1="240.00" y1="760.00" x2="231.00" y2="769.00" stroke="#222216" stroke-width="0.7" stroke-opacity="0.5"/><line x1="252.00" y1="760.00" x2="243.00" y2="769.00" stroke="#222216" stroke-width="0.7" stroke-opacity="0.5"/><line x1="264.00" y1="760.00" x2="255.00" y2="769.00" stroke="#222216" stroke-width="0.7" stroke-opacity="0.5"/><line x1="276.00" y1="760.00" x2="267.00" y2="769.00" stroke="#222216" stroke-width="0.7" stroke-opacity="0.5"/><line x1="288.00" y1="760.00" x2="279.00" y2="769.00" stroke="#222216" stroke-width="0.7" stroke-opacity="0.5"/><line x1="300.00" y1="760.00" x2="291.00" y2="769.00" stroke="#222216" stroke-width="0.7" stroke-opacity="0.5"/><line x1="312.00" y1="760.00" x2="303.00" y2="769.00" stroke="#222216" stroke-width="0.7" stroke-opacity="0.5"/><line x1="324.00" y1="760.00" x2="315.00" y2="769.00" stroke="#222216" stroke-width="0.7" stroke-opacity="0.5"/><line x1="336.00" y1="760.00" x2="327.00" y2="769.00" stroke="#222216" stroke-width="0.7" stroke-opacity="0.5"/><line x1="348.00" y1="760.00" x2="339.00" y2="769.00" stroke="#222216" stroke-width="0.7" stroke-opacity="0.5"/><line x1="360.00" y1="760.00" x2="351.00" y2="769.00" stroke="#222216" stroke-width="0.7" stroke-opacity="0.5"/><line x1="372.00" y1="760.00" x2="363.00" y2="769.00" stroke="#222216" stroke-width="0.7" stroke-opacity="0.5"/><line x1="384.00" y1="760.00" x2="375.00" y2="769.00" stroke="#222216" stroke-width="0.7" stroke-opacity="0.5"/><line x1="396.00" y1="760.00" x2="387.00" y2="769.00" stroke="#222216" stroke-width="0.7" stroke-opacity="0.5"/><line x1="408.00" y1="760.00" x2="399.00" y2="769.00" stroke="#222216" stroke-width="0.7" stroke-opacity="0.5"/><line x1="420.00" y1="760.00" x2="411.00" y2="769.00" stroke="#222216" stroke-width="0.7" stroke-opacity="0.5"/><line x1="432.00" y1="760.00" x2="423.00" y2="769.00" stroke="#222216" stroke-width="0.7" stroke-opacity="0.5"/><line x1="444.00" y1="760.00" x2="435.00" y2="769.00" stroke="#222216" stroke-width="0.7" stroke-opacity="0.5"/><line x1="456.00" y1="760.00" x2="447.00" y2="769.00" stroke="#222216" stroke-width="0.7" stroke-opacity="0.5"/><line x1="468.00" y1="760.00" x2="459.00" y2="769.00" stroke="#222216" stroke-width="0.7" stroke-opacity="0.5"/><line x1="480.00" y1="760.00" x2="471.00" y2="769.00" stroke="#222216" stroke-width="0.7" stroke-opacity="0.5"/><line x1="492.00" y1="760.00" x2="483.00" y2="769.00" stroke="#222216" stroke-width="0.7" stroke-opacity="0.5"/><line x1="504.00" y1="760.00" x2="495.00" y2="769.00" stroke="#222216" stroke-width="0.7" stroke-opacity="0.5"/><line x1="516.00" y1="760.00" x2="507.00" y2="769.00" stroke="#222216" stroke-width="0.7" stroke-opacity="0.5"/><rect x="144.00" y="760.00" width="312.00" height="138.00" rx="0" fill="#BBA788" fill-opacity="1" stroke="#2C2620" stroke-width="1.1"/><rect x="144.0" y="760" width="312.0" height="138.0" fill="url(#hatchS)"/><text x="300.00" y="916.00" font-family="Helvetica, Arial, sans-serif" font-size="10.5" font-weight="400" fill="#8C8478" text-anchor="middle" letter-spacing="0" >concrete footing — size/depth by engineer</text><path d="M116.0,760 L90.0,405.79999999999995 L150.0,405.79999999999995 Z" fill="#C1A152" fill-opacity="0.18"/><rect x="107.00" y="754.00" width="18.00" height="9.00" rx="0" fill="#222216" fill-opacity="1" stroke="#222216" stroke-width="1"/><text x="102.00" y="784.00" font-family="Helvetica, Arial, sans-serif" font-size="10.5" font-weight="400" fill="#8C8478" text-anchor="start" letter-spacing="0" >warm in-ground uplight</text><line x1="162.00" y1="254.00" x2="92.00" y2="254.00" stroke="#4C5039" stroke-width="0.8" stroke-opacity="1"/><line x1="162.00" y1="760.00" x2="92.00" y2="760.00" stroke="#4C5039" stroke-width="0.8" stroke-opacity="1"/><line x1="92.00" y1="254.00" x2="92.00" y2="760.00" stroke="#4C5039" stroke-width="0.9" marker-start="url(#ar)" marker-end="url(#ar)"/><text x="84.00" y="507.00" font-family="Helvetica, Arial, sans-serif" font-size="12.5" fill="#4C5039" text-anchor="end" letter-spacing="0.3" transform="rotate(-90 84.00 507.00)">1100</text><line x1="144.00" y1="760.00" x2="92.00" y2="760.00" stroke="#4C5039" stroke-width="0.8" stroke-opacity="1"/><line x1="144.00" y1="898.00" x2="92.00" y2="898.00" stroke="#4C5039" stroke-width="0.8" stroke-opacity="1"/><line x1="92.00" y1="760.00" x2="92.00" y2="898.00" stroke="#4C5039" stroke-width="0.9" marker-start="url(#ar)" marker-end="url(#ar)"/><text x="84.00" y="829.00" font-family="Helvetica, Arial, sans-serif" font-size="12.5" fill="#4C5039" text-anchor="end" letter-spacing="0.3" transform="rotate(-90 84.00 829.00)">300</text><line x1="162.00" y1="898.00" x2="162.00" y2="942.00" stroke="#4C5039" stroke-width="0.8" stroke-opacity="1"/><line x1="438.00" y1="898.00" x2="438.00" y2="942.00" stroke="#4C5039" stroke-width="0.8" stroke-opacity="1"/><line x1="162.00" y1="942.00" x2="438.00" y2="942.00" stroke="#4C5039" stroke-width="0.9" marker-start="url(#ar)" marker-end="url(#ar)"/><text x="300.00" y="936.00" font-family="Helvetica, Arial, sans-serif" font-size="12.5" font-weight="400" fill="#4C5039" text-anchor="middle" letter-spacing="0.3" >600</text><line x1="392.57" y1="418.96" x2="458.00" y2="418.96" stroke="#4C5039" stroke-width="0.8" stroke-opacity="1"/><line x1="392.57" y1="461.91" x2="458.00" y2="461.91" stroke="#4C5039" stroke-width="0.8" stroke-opacity="1"/><line x1="458.00" y1="418.96" x2="458.00" y2="461.91" stroke="#4C5039" stroke-width="0.9" marker-start="url(#ar)" marker-end="url(#ar)"/><text x="466.00" y="440.43" font-family="Helvetica, Arial, sans-serif" font-size="12.5" fill="#4C5039" text-anchor="start" letter-spacing="0.3" transform="rotate(-90 466.00 440.43)">180</text><line x1="300.00" y1="440.43" x2="588.00" y2="374.00" stroke="#4C5039" stroke-width="0.9" stroke-opacity="1"/><circle cx="300.00" cy="440.43" r="2.2" fill="#4C5039"/><text x="592.00" y="372.00" font-family="Helvetica, Arial, sans-serif" font-size="12.5" font-weight="600" fill="#222216" text-anchor="start" letter-spacing="0.2" >AETHON deep-cut</text><text x="592.00" y="386.00" font-family="Helvetica, Arial, sans-serif" font-size="11.5" font-weight="400" fill="#8C8478" text-anchor="start" letter-spacing="0.1" >cap height 180 · depth 15</text><text x="592.00" y="399.00" font-family="Helvetica, Arial, sans-serif" font-size="11.5" font-weight="400" fill="#8C8478" text-anchor="start" letter-spacing="0.1" >bare — reads by shadow only</text><line x1="407.64" y1="461.46" x2="588.00" y2="464.00" stroke="#4C5039" stroke-width="0.9" stroke-opacity="1"/><circle cx="407.64" cy="461.46" r="2.2" fill="#4C5039"/><text x="592.00" y="462.00" font-family="Helvetica, Arial, sans-serif" font-size="12.5" font-weight="600" fill="#222216" text-anchor="start" letter-spacing="0.2" >Dressed inscription panel</text><text x="592.00" y="476.00" font-family="Helvetica, Arial, sans-serif" font-size="11.5" font-weight="400" fill="#8C8478" text-anchor="start" letter-spacing="0.1" >honed face within a</text><text x="592.00" y="489.00" font-family="Helvetica, Arial, sans-serif" font-size="11.5" font-weight="400" fill="#8C8478" text-anchor="start" letter-spacing="0.1" >split / rock-face surround</text><line x1="300.00" y1="284.00" x2="588.00" y2="284.00" stroke="#4C5039" stroke-width="0.9" stroke-opacity="1"/><circle cx="300.00" cy="284.00" r="2.2" fill="#4C5039"/><text x="592.00" y="282.00" font-family="Helvetica, Arial, sans-serif" font-size="12.5" font-weight="600" fill="#222216" text-anchor="start" letter-spacing="0.2" >Natural riven top</text><text x="592.00" y="296.00" font-family="Helvetica, Arial, sans-serif" font-size="11.5" font-weight="400" fill="#8C8478" text-anchor="start" letter-spacing="0.1" >sandstone, left rough</text><text x="780.00" y="186.00" font-family="Helvetica, Arial, sans-serif" font-size="12" font-weight="700" fill="#4C5039" text-anchor="start" letter-spacing="1" >2 — LETTER SECTION   (2:1)</text><rect x="780.00" y="200.00" width="300.00" height="150.00" rx="0" fill="#C7B08C" fill-opacity="1" stroke="#2C2620" stroke-width="1.3"/><rect x="780" y="200" width="300" height="150" fill="url(#hatchS)"/><line x1="780.00" y1="200.00" x2="1080.00" y2="200.00" stroke="#222216" stroke-width="1.6" stroke-opacity="1"/><path d="M908.0,200 L930,230 L952.0,200 Z" fill="#EFECE4" stroke="#222216" stroke-width="1.4"/><line x1="908.00" y1="200.00" x2="766.00" y2="200.00" stroke="#4C5039" stroke-width="0.8" stroke-opacity="1"/><line x1="908.00" y1="230.00" x2="766.00" y2="230.00" stroke="#4C5039" stroke-width="0.8" stroke-opacity="1"/><line x1="766.00" y1="200.00" x2="766.00" y2="230.00" stroke="#4C5039" stroke-width="0.9" marker-start="url(#ar)" marker-end="url(#ar)"/><text x="758.00" y="215.00" font-family="Helvetica, Arial, sans-serif" font-size="12.5" fill="#4C5039" text-anchor="end" letter-spacing="0.3" transform="rotate(-90 758.00 215.00)">15</text><text x="780.00" y="374.00" font-family="Helvetica, Arial, sans-serif" font-size="11.5" font-weight="400" fill="#222216" text-anchor="start" letter-spacing="0.2" >Deep V-incision 60° · 15 deep · NO infill.</text><text x="780.00" y="390.00" font-family="Helvetica, Arial, sans-serif" font-size="11" font-weight="400" fill="#8C8478" text-anchor="start" letter-spacing="0.2" >Soft stone: cut deep; edges round gracefully with the coast.</text><text x="780.00" y="430.00" font-family="Helvetica, Arial, sans-serif" font-size="11" font-weight="700" fill="#4C5039" text-anchor="start" letter-spacing="1.6" >GENERAL NOTES</text><text x="780.00" y="448.00" font-family="Helvetica, Arial, sans-serif" font-size="11.5" font-weight="400" fill="#222216" text-anchor="start" letter-spacing="0.1" >—  Material: coastal sandstone (the cliff's own stone). For a forever-crisp inscription,</text><text x="780.00" y="463.50" font-family="Helvetica, Arial, sans-serif" font-size="11.5" font-weight="400" fill="#222216" text-anchor="start" letter-spacing="0.1" >—     a sandstone-toned granite reads near-identical and lasts generations — sample both.</text><text x="780.00" y="479.00" font-family="Helvetica, Arial, sans-serif" font-size="11.5" font-weight="400" fill="#222216" text-anchor="start" letter-spacing="0.1" >—  Inscription: deep-cut, bare (shadow only). Sandblast or hand-carve. Accept weathering.</text><text x="780.00" y="494.50" font-family="Helvetica, Arial, sans-serif" font-size="11.5" font-weight="400" fill="#222216" text-anchor="start" letter-spacing="0.1" >—  Finish: natural riven top + split surround; dressed honed inscription panel only.</text><text x="780.00" y="510.00" font-family="Helvetica, Arial, sans-serif" font-size="11.5" font-weight="400" fill="#222216" text-anchor="start" letter-spacing="0.1" >—  Lighting: a single warm 2700–3000K in-ground uplight at the base. Never cool / blue.</text><text x="780.00" y="525.50" font-family="Helvetica, Arial, sans-serif" font-size="11.5" font-weight="400" fill="#222216" text-anchor="start" letter-spacing="0.1" >—  No QR here — rough texture + exposure defeat scanning; the marker is presence, not function.</text><text x="780.00" y="541.00" font-family="Helvetica, Arial, sans-serif" font-size="11.5" font-weight="400" fill="#222216" text-anchor="start" letter-spacing="0.1" >—  Foundation, drainage &amp; embedment by structural engineer; allow for salt-air durability.</text><rect x="780.00" y="800.00" width="500.00" height="152.00" rx="0" fill="none" fill-opacity="1" stroke="#2C2620" stroke-width="1.2"/><line x1="780.00" y1="828.00" x2="1280.00" y2="828.00" stroke="#2C2620" stroke-width="1" stroke-opacity="1"/><line x1="1070.00" y1="828.00" x2="1070.00" y2="952.00" stroke="#2C2620" stroke-width="1" stroke-opacity="1"/><text x="793.00" y="819.00" font-family="Helvetica, Arial, sans-serif" font-size="13" font-weight="700" fill="#222216" text-anchor="start" letter-spacing="1.8" >AETHON · HOUSE OF LIGHT</text><text x="1268.00" y="819.00" font-family="Helvetica, Arial, sans-serif" font-size="10" font-weight="400" fill="#8C8478" text-anchor="end" letter-spacing="1.4" >PAPHOS, CYPRUS</text><text x="793.00" y="848.00" font-family="Helvetica, Arial, sans-serif" font-size="13.5" font-weight="700" fill="#222216" text-anchor="start" letter-spacing="0.3" >AETHON · PROMENADE MONOLITH</text><text x="793.00" y="865.00" font-family="Helvetica, Arial, sans-serif" font-size="10" font-weight="400" fill="#4C5039" text-anchor="start" letter-spacing="0.3" >Sheet 2 of 2  ·  SEASIDE PROMENADE MONOLITH</text><text x="793.00" y="886.00" font-family="Helvetica, Arial, sans-serif" font-size="9.5" font-weight="700" fill="#8C8478" text-anchor="start" letter-spacing="1.4" >MATERIALS / FINISH</text><rect x="793.00" y="892.00" width="14.00" height="10.00" rx="0" fill="#C7B08C" fill-opacity="1" stroke="#2C2620" stroke-width="0.7"/><text x="813.00" y="900.00" font-family="Helvetica, Arial, sans-serif" font-size="10" font-weight="400" fill="#222216" text-anchor="start" letter-spacing="0.1" >Coastal sandstone (or sandstone-toned granite)</text><rect x="793.00" y="905.50" width="14.00" height="10.00" rx="0" fill="#222216" fill-opacity="1" stroke="#2C2620" stroke-width="0.7"/><text x="813.00" y="913.50" font-family="Helvetica, Arial, sans-serif" font-size="10" font-weight="400" fill="#222216" text-anchor="start" letter-spacing="0.1" >Deep V-cut — bare, no infill</text><rect x="793.00" y="919.00" width="14.00" height="10.00" rx="0" fill="#C1A152" fill-opacity="1" stroke="#2C2620" stroke-width="0.7"/><text x="813.00" y="927.00" font-family="Helvetica, Arial, sans-serif" font-size="10" font-weight="400" fill="#222216" text-anchor="start" letter-spacing="0.1" >Warm in-ground uplight — no gilding outdoors here</text><text x="1083.00" y="848.00" font-family="Helvetica, Arial, sans-serif" font-size="10" font-weight="700" fill="#222216" text-anchor="start" letter-spacing="0.3" >SCALE — DO NOT SCALE</text><text x="1083.00" y="861.00" font-family="Helvetica, Arial, sans-serif" font-size="9.5" font-weight="400" fill="#8C8478" text-anchor="start" letter-spacing="0" >figured dims (mm) govern</text><text x="1083.00" y="882.00" font-family="Helvetica, Arial, sans-serif" font-size="10" font-weight="700" fill="#222216" text-anchor="start" letter-spacing="0.3" >STATUS — design study</text><text x="1083.00" y="895.00" font-family="Helvetica, Arial, sans-serif" font-size="9.5" font-weight="400" fill="#8C8478" text-anchor="start" letter-spacing="0" >for fabrication · verify on site</text><text x="1083.00" y="918.00" font-family="Helvetica, Arial, sans-serif" font-size="10" font-weight="600" fill="#222216" text-anchor="start" letter-spacing="0" >DATE 2026-06</text><text x="1083.00" y="931.00" font-family="Helvetica, Arial, sans-serif" font-size="9.5" font-weight="400" fill="#8C8478" text-anchor="start" letter-spacing="0" >REV A · not for structural use</text></svg>