<?xml version="1.0" encoding="UTF-8"?>
<svg id="Layer_2" data-name="Layer 2" xmlns="http://www.w3.org/2000/svg" viewBox="0 0 366.78 85.09">
  <defs>
    <style>
      .cls-1 {
        fill: #fff;
      }
    </style>
  </defs>
  <g id="Layer_1-2" data-name="Layer 1">
    <g>
      <path class="cls-1" d="M274.56,21.93c-17.41,0-31.58,14.16-31.58,31.58s14.17,31.58,31.58,31.58,31.58-14.17,31.58-31.58-14.17-31.58-31.58-31.58ZM274.56,79.04c-13.6,0-24.66-11.53-24.66-25.52s11.07-25.54,24.66-25.54,24.67,11.53,24.67,25.54-11.06,25.52-24.67,25.52Z"/>
      <path class="cls-1" d="M280.98,6.46c0,3.54-2.84,6.46-6.33,6.46s-6.33-2.92-6.33-6.46,2.84-6.46,6.33-6.46,6.33,2.92,6.33,6.46Z"/>
      <path class="cls-1" d="M99.24,78.57h-10.85v-20.06h7.77c1.27,0,2.31.23,3.11.69.81.46,1.7,1.09,2.67,1.9v-9.99c-.98,1.09-1.87,1.78-2.67,2.07-.81.29-1.84.43-3.11.43h-7.77v-25.16h13.7c1.03,0,1.87.27,2.53.82.66.55,1.38,1.31,2.16,2.28v-8.18h-27.91c.83.98,1.48,1.91,1.94,2.8.46.89.7,2,.7,3.32v48.07c0,1.38-.22,2.5-.66,3.36-.44.86-1.07,1.78-1.9,2.76h27.83l1.17-8.18c-1.42.98-2.76,1.74-4.03,2.28-1.27.55-2.83.82-4.69.82Z"/>
      <path class="cls-1" d="M126.5,31.63c.78-.98,1.5-1.74,2.16-2.28.66-.55,1.5-.82,2.53-.82h10.07v49.1c0,1.32-.22,2.41-.66,3.27-.44.86-1.07,1.78-1.9,2.76h11.94c-.83-1.03-1.46-1.95-1.9-2.76-.44-.8-.66-1.9-.66-3.27V28.52h10.07c1.02,0,1.87.27,2.53.82.66.55,1.38,1.31,2.16,2.28v-8.27h-36.33v8.27Z"/>
      <path class="cls-1" d="M356.02,23.35c.42.48.79.96,1.11,1.43.32.47.6.93.84,1.37.46.89.69,1.99.69,3.32v36.44c-1.03-1.72-24.39-42.55-24.39-42.55h-8.57c.87.97,1.55,1.91,2.01,2.79.46.89.7,2,.7,3.32v48.07c0,1.32-.23,2.42-.66,3.31-.22.45-.49.9-.82,1.37-.16.24-.35.47-.54.71-.19.24-.4.48-.62.73h10.76c-.41-.49-.78-.96-1.1-1.44-.33-.46-.6-.92-.84-1.37-.46-.89-.69-1.99-.69-3.31v-41.01c1.27,2.18,27.84,47.12,27.84,47.12h2.41V29.47c0-.53.04-1.02.11-1.47.05-.41.15-.78.26-1.14.08-.25.18-.49.29-.71.44-.89,1.09-1.82,1.98-2.79h-10.77Z"/>
      <path class="cls-1" d="M220.79,26.16c.46-.89,1.11-1.83,1.94-2.8h-12.08c.83.97,1.47,1.91,1.94,2.8.46.89.7,1.99.7,3.31v24.04h-20.3v-24.04c0-1.32.23-2.42.7-3.31.46-.89,1.1-1.83,1.94-2.8h-12.16c.83.97,1.47,1.91,1.94,2.8.46.89.7,1.99.7,3.31v48.07c0,1.32-.22,2.43-.66,3.31-.44.89-1.06,1.83-1.9,2.8h12.02c-.84-.97-1.47-1.91-1.91-2.8-.44-.88-.66-1.99-.66-3.31v-19.12h20.3v19.12c0,1.32-.23,2.43-.66,3.31-.44.89-1.07,1.83-1.9,2.8h11.93c-.83-.97-1.47-1.91-1.9-2.8-.44-.88-.66-1.99-.66-3.31V29.47c0-1.32.23-2.42.69-3.31Z"/>
      <g>
        <path class="cls-1" d="M58.66,83.66h-13.47s.1-.09.15-.14c.89-.83,1.48-1.74,1.76-2.75.29-1.06.22-2.43-.22-4.1l-2.62-10.31-9.13-35.95-7.38,29.37-1.08,4.32-1.7,6.76h.02l-1.55,5.72c-.39,1.44-.4,2.77-.04,4.01.37,1.24.97,2.25,1.8,3.06h-12.16c1.07-.81,1.94-1.68,2.6-2.63.66-.95,1.26-2.25,1.79-3.91l3.74-13.95,1.06-3.99,7.76-28.92c.25-.98.27-2.15.07-3.5-.2-1.34-.8-2.47-1.83-3.4h11.35l14.54,53.49c.45,1.49,1.01,2.71,1.72,3.67.71.95,1.65,1.99,2.82,3.14Z"/>
        <polygon class="cls-1" points="1.26 53.51 35.78 53.51 37.01 58.42 0 58.42 1.26 53.51"/>
      </g>
    </g>
  </g>
</svg>